<?xml version="1.0" encoding="iso-8859-1"?>
<!-- Uploaded to: SVG Repo, www.svgrepo.com, Generator: SVG Repo Mixer Tools -->
<svg height="800px" width="800px" version="1.1" id="Layer_1" xmlns="http://www.w3.org/2000/svg" xmlns:xlink="http://www.w3.org/1999/xlink" 
	 viewBox="0 0 512.001 512.001" xml:space="preserve">
<path style="fill:#797882;" d="M332.467,491.264l-76.808-233.267c-2.051-6.231-7.871-10.441-14.43-10.441
	c-6.559,0-12.379,4.21-14.43,10.441l-77.068,234.059c-1.524,4.63-0.735,9.709,2.122,13.657c2.857,3.948,7.434,6.286,12.309,6.286
	H318.3c0.006,0,0.013,0,0.02,0c8.391,0,15.193-6.802,15.193-15.193C333.51,494.851,333.141,492.98,332.467,491.264z"/>
<path style="fill:#2D2E30;" d="M332.467,491.264l-76.808-233.267c-2.051-6.231-7.871-10.441-14.43-10.441v264.445h77.068
	c0.006,0,0.013,0,0.02,0c8.391,0,15.193-6.802,15.193-15.193C333.51,494.851,333.141,492.98,332.467,491.264z"/>
<path style="fill:#F7DC4D;" d="M241.229,436.286c-97.455,0-176.741-79.286-176.741-176.741S143.773,82.803,241.229,82.803
	S417.97,162.09,417.97,259.545S338.684,436.286,241.229,436.286z M241.229,113.189c-80.701,0-146.356,65.654-146.356,146.356
	S160.528,405.9,241.229,405.9s146.356-65.654,146.356-146.356S321.929,113.189,241.229,113.189z"/>
<path style="fill:#FF8600;" d="M241.316,82.805v30.385c80.661,0.048,146.269,65.683,146.269,146.355S321.977,405.852,241.316,405.9
	v30.385c97.415-0.048,176.654-79.314,176.654-176.74S338.731,82.852,241.316,82.805z"/>
<g>
	<path style="fill:#FFA81D;" d="M40.733,278.575c-8.391,0.002-15.194-6.799-15.196-15.189c-0.002-8.391,6.799-15.194,15.189-15.196
		l401.086-0.087c8.391-0.002,15.194,6.799,15.196,15.189c0.002,8.391-6.799,15.194-15.189,15.196L40.733,278.575z"/>
	<path style="fill:#FFA81D;" d="M99.498,420.368c-3.887,0-7.774-1.482-10.74-4.447c-5.935-5.931-5.936-15.551-0.004-21.486
		l283.549-283.673c5.931-5.935,15.55-5.937,21.486-0.004c5.935,5.931,5.936,15.551,0.004,21.486L110.243,415.916
		C107.276,418.884,103.387,420.368,99.498,420.368z"/>
	<path style="fill:#FFA81D;" d="M383.109,420.306c-3.887,0-7.774-1.482-10.74-4.447L88.695,132.31
		c-5.935-5.931-5.936-15.551-0.004-21.486s15.55-5.937,21.486-0.004l283.673,283.549c5.935,5.931,5.936,15.551,0.004,21.486
		C390.887,418.822,386.998,420.306,383.109,420.306z"/>
	<path style="fill:#FFA81D;" d="M241.316,479.075c-8.39,0-15.191-6.8-15.193-15.189L226.037,62.8
		c-0.002-8.391,6.799-15.194,15.189-15.196c0,0,0.002,0,0.003,0c8.39,0,15.191,6.8,15.193,15.189l0.087,401.086
		c0.002,8.391-6.799,15.194-15.189,15.196C241.318,479.075,241.317,479.075,241.316,479.075z"/>
</g>
<circle style="fill:#F7DC4D;" cx="241.235" cy="259.54" r="59.257"/>
<path style="fill:#FF8600;" d="M241.229,200.294v118.502c32.724,0,59.251-26.527,59.251-59.251S273.953,200.294,241.229,200.294z"/>
<path style="fill:#00F9FF;" d="M259.461,66.848h-34.437c-8.391,0-15.193-6.802-15.193-15.193V15.193
	C209.831,6.802,216.633,0,225.023,0s15.193,6.802,15.193,15.193v21.27h19.244c8.391,0,15.193,6.802,15.193,15.193
	S267.85,66.848,259.461,66.848z"/>
<path style="fill:#00B7C0;" d="M259.461,36.463h-3.652h-15.591h-30.385v15.193c0,8.391,6.802,15.193,15.193,15.193h34.436
	c8.391,0,15.193-6.802,15.193-15.193S267.85,36.463,259.461,36.463z"/>
<path style="fill:#00F9FF;" d="M419.489,133.695h-34.437c-8.391,0-15.193-6.802-15.193-15.193V82.041
	c0-8.391,6.802-15.193,15.193-15.193c8.391,0,15.193,6.802,15.193,15.193v21.27h19.244c8.391,0,15.193,6.802,15.193,15.193
	C434.682,126.893,427.88,133.695,419.489,133.695z"/>
<path style="fill:#00B7C0;" d="M419.489,103.311h-3.652h-15.591H369.86v15.193c0,8.391,6.802,15.193,15.193,15.193h34.437
	c8.391,0,15.193-6.802,15.193-15.193C434.682,110.112,427.88,103.311,419.489,103.311z"/>
<path style="fill:#00F9FF;" d="M484.312,292.969h-34.436c-8.391,0-15.193-6.802-15.193-15.193v-36.463
	c0-8.391,6.802-15.193,15.193-15.193c8.391,0,15.193,6.802,15.193,15.193v21.27h19.244c8.391,0,15.193,6.802,15.193,15.193
	S492.702,292.969,484.312,292.969z"/>
<path style="fill:#00B7C0;" d="M484.312,262.583h-3.652h-15.592h-30.385v15.193c0,8.391,6.802,15.193,15.193,15.193h34.436
	c8.391,0,15.193-6.802,15.193-15.193C499.503,269.385,492.702,262.583,484.312,262.583z"/>
<path style="fill:#00F9FF;" d="M422.865,430.715h-34.436c-8.391,0-15.193-6.802-15.193-15.193V379.06
	c0-8.391,6.802-15.193,15.193-15.193s15.193,6.802,15.193,15.193v21.27h19.244c8.391,0,15.193,6.802,15.193,15.193
	C438.058,423.913,431.256,430.715,422.865,430.715z"/>
<path style="fill:#00B7C0;" d="M422.865,400.33h-3.652h-15.591h-30.385v15.193c0,8.391,6.802,15.193,15.193,15.193h34.436
	c8.391,0,15.193-6.802,15.193-15.193C438.058,407.132,431.256,400.33,422.865,400.33z"/>
<path style="fill:#00F9FF;" d="M263.511,489.159h-34.437c-8.391,0-15.193-6.802-15.193-15.193v-36.463
	c0-8.391,6.802-15.193,15.193-15.193c8.391,0,15.193,6.802,15.193,15.193v21.27h19.244c8.391,0,15.193,6.802,15.193,15.193
	C278.704,482.357,271.902,489.159,263.511,489.159z"/>
<path style="fill:#00B7C0;" d="M263.511,458.774h-3.652h-15.591h-30.385v15.193c0,8.391,6.802,15.193,15.193,15.193h34.437
	c8.391,0,15.193-6.802,15.193-15.193C278.705,465.576,271.902,458.774,263.511,458.774z"/>
<path style="fill:#00F9FF;" d="M114.117,442.58H79.681c-8.391,0-15.193-6.802-15.193-15.193v-36.463
	c0-8.391,6.802-15.193,15.193-15.193s15.193,6.802,15.193,15.193v21.27h19.244c8.391,0,15.193,6.802,15.193,15.193
	S122.508,442.58,114.117,442.58z"/>
<path style="fill:#00B7C0;" d="M114.117,412.195h-3.652H94.874H64.488v15.193c0,8.391,6.802,15.193,15.193,15.193h34.437
	c8.391,0,15.193-6.802,15.193-15.193S122.508,412.195,114.117,412.195z"/>
<path style="fill:#00F9FF;" d="M62.124,300.107H27.688c-8.391,0-15.193-6.802-15.193-15.193v-36.463
	c0-8.391,6.802-15.193,15.193-15.193s15.193,6.802,15.193,15.193v21.27h19.244c8.391,0,15.193,6.802,15.193,15.193
	C77.318,293.305,70.515,300.107,62.124,300.107z"/>
<path style="fill:#00B7C0;" d="M62.124,269.721h-3.652H42.881H12.495v15.193c0,8.391,6.802,15.193,15.193,15.193h34.437
	c8.391,0,15.193-6.802,15.193-15.193C77.318,276.523,70.515,269.721,62.124,269.721z"/>
<path style="fill:#00F9FF;" d="M118.169,133.695H83.732c-8.391,0-15.193-6.802-15.193-15.193V82.041
	c0-8.391,6.802-15.193,15.193-15.193s15.193,6.802,15.193,15.193v21.27h19.244c8.391,0,15.193,6.802,15.193,15.193
	C133.361,126.893,126.56,133.695,118.169,133.695z"/>
<path style="fill:#00B7C0;" d="M118.169,103.311h-3.652H98.924H68.539v15.193c0,8.391,6.802,15.193,15.193,15.193h34.437
	c8.391,0,15.193-6.802,15.193-15.193S126.56,103.311,118.169,103.311z"/>
</svg>