<?xml version="1.0" encoding="iso-8859-1"?>
<!-- Uploaded to: SVG Repo, www.svgrepo.com, Generator: SVG Repo Mixer Tools -->
<svg height="800px" width="800px" version="1.1" id="Layer_1" xmlns="http://www.w3.org/2000/svg" xmlns:xlink="http://www.w3.org/1999/xlink" 
	 viewBox="0 0 512 512" xml:space="preserve">
<path style="fill:#F7DC4D;" d="M507.426,64.972c1.57-2.006,1.761-4.765,0.483-6.968c-1.278-2.203-3.769-3.407-6.29-3.038
	l-40.431,5.906c-3.793-3.846-7.824-7.174-11.983-9.921l3.409-18.223c0.393-2.098-0.112-4.264-1.393-5.972
	c-1.281-1.708-3.217-2.799-5.341-3.014c-16.303-1.649-53.103-0.102-73.857,42.175c-18.482,37.65-36.579,54.226-45.672,60.741
	c-3.253,2.331-4.154,6.783-2.053,10.19l5.139,8.334c-76.842-13.705-192.829-2.144-203.579,34.692
	c-22.099-5.572-57.209-6.581-87.091,27.79c-4.877,5.609-4.918,13.955-0.079,19.597l36.54,42.594
	c2.521,2.938,6.34,4.429,10.185,3.973c3.845-0.456,7.207-2.798,8.972-6.243c3.898-7.607,9.415-17.091,16.6-26.608
	c-3.656,19.428-4.101,42.508,2.809,68.018L76.11,394.581c-1.037,2.355-0.814,5.075,0.592,7.231c1.406,2.156,3.806,3.455,6.38,3.455
	h19.2c2.574,0,4.975-1.301,6.381-3.458l47.063-72.203c14.53-6.054,31.403-18.725,45.182-44.694
	c18.171,7.319,38.622,11.452,60.269,11.452c14.642,0,28.731-1.905,41.948-5.388c14.383,19.702,29.465,30.257,42.934,35.669
	l48.993,75.164c1.406,2.157,3.807,3.458,6.381,3.458h15.311c2.574,0,4.974-1.299,6.38-3.455c1.406-2.156,1.629-4.876,0.592-7.231
	l-32.24-73.223c7.91-36.107,2.63-66.426-6.484-89.784c1.11-1.976,2.152-3.982,3.121-6.019l39.639-72.562l1.13,8.615
	c1.683,12.836,10.651,23.534,22.997,27.433l0.061,0.019c4.051,1.279,8.462,0.765,12.123-1.39c3.661-2.155,6.241-5.757,7.095-9.919
	c7.486-36.508,22.758-49.933,11.715-81.407L507.426,64.972z"/>
<path style="fill:#FF8600;" d="M507.909,58.004c-1.278-2.203-3.769-3.407-6.29-3.038l-40.431,5.906
	c-3.793-3.846-7.824-7.174-11.983-9.921l3.409-18.223c0.393-2.098-0.112-4.264-1.393-5.972c-1.279-1.708-3.217-2.799-5.341-3.014
	c-16.303-1.649-53.103-0.102-73.857,42.175c-18.482,37.65-36.579,54.226-45.672,60.741c-3.253,2.331-4.154,6.783-2.054,10.19
	l5.139,8.334c-22.201-3.959-47.669-5.806-72.924-5.547v156.659c1.549,0.042,3.102,0.07,4.663,0.07
	c14.642,0,28.731-1.905,41.948-5.388c14.383,19.702,29.465,30.257,42.934,35.669l48.993,75.164c1.406,2.157,3.807,3.458,6.381,3.458
	h15.311c2.574,0,4.974-1.299,6.38-3.455c1.406-2.156,1.629-4.876,0.592-7.231l-32.24-73.223c7.91-36.107,2.631-66.426-6.484-89.784
	c1.11-1.976,2.152-3.982,3.121-6.018l39.639-72.562l1.13,8.615c1.683,12.836,10.651,23.534,22.997,27.433l0.061,0.019
	c4.052,1.279,8.462,0.765,12.123-1.39c3.661-2.155,6.241-5.757,7.095-9.919c7.486-36.508,22.758-49.933,11.715-81.407l24.556-31.373
	C508.997,62.966,509.189,60.207,507.909,58.004z"/>
<path style="fill:#FFA81D;" d="M173.682,149.375c3.678,37.933,30.959,67.401,64.086,67.401c35.38,0,64.095-33.613,64.503-75.254
	C258.87,137.363,209.332,139.982,173.682,149.375z"/>
<path style="fill:#FF8600;" d="M173.682,149.375c3.847,39.684,29.421,79.194,64.076,79.194c37.014,0,64.086-43.484,64.512-87.047
	C256.868,137.172,210.977,139.548,173.682,149.375z"/>
<path style="fill:#E61F00;" d="M173.682,149.375c3.678,37.933,30.959,67.401,64.086,67.401c35.38,0,64.095-33.613,64.503-75.254
	C258.87,137.363,209.332,139.982,173.682,149.375z"/>
<path style="fill:#9D2217;" d="M237.976,140.21v76.559c35.284-0.132,63.888-33.689,64.294-75.248
	C281.511,139.533,259.351,139.099,237.976,140.21z"/>
<path style="fill:#C27526;" d="M511.993,371.781c-0.175,7.168-3.734,13.829-9.585,17.969
	c-88.686,62.748-174.016,98.909-245.893,98.909c-70.948,0-158.182-36.08-246.904-98.703C3.598,385.713,0,378.786,0,371.428v-0.02
	c0-8.144,4.369-15.663,11.448-19.692c7.078-4.028,15.761-3.934,22.768,0.217c136.828,81.066,307.387,81.131,444.269,0.194
	c6.945-4.106,15.572-4.123,22.533-0.043c6.961,4.08,11.173,11.615,10.976,19.682V371.781z"/>
<path style="fill:#7E4F1F;" d="M501.017,352.082c-6.961-4.08-15.588-4.063-22.533,0.043
	c-68.567,40.544-145.585,60.758-222.58,60.651v75.873c0.202,0.001,0.408,0.01,0.61,0.01c71.877,0,157.207-36.16,245.893-98.909
	c5.853-4.141,9.411-10.803,9.585-17.969v-0.017C512.19,363.697,507.979,356.162,501.017,352.082z"/>
</svg>