<?xml version="1.0" encoding="iso-8859-1"?>
<!-- Uploaded to: SVG Repo, www.svgrepo.com, Generator: SVG Repo Mixer Tools -->
<svg height="800px" width="800px" version="1.1" id="Layer_1" xmlns="http://www.w3.org/2000/svg" xmlns:xlink="http://www.w3.org/1999/xlink" 
	 viewBox="0 0 511.999 511.999" xml:space="preserve">
<g>
	<path style="fill:#00F9FF;" d="M88.856,222.068c-1.128,0-2.273-0.116-3.421-0.36l-43.827-9.262
		c-4.273-0.902-8.012-3.465-10.394-7.125c-2.383-3.66-3.214-8.116-2.311-12.389l10.196-48.251
		c1.88-8.896,10.619-14.588,19.513-12.705c8.896,1.881,14.584,10.616,12.705,19.513l-6.792,32.143l27.718,5.858
		c8.896,1.881,14.585,10.616,12.705,19.513C103.311,216.752,96.472,222.068,88.856,222.068z"/>
	<path style="fill:#00F9FF;" d="M122.465,255.273c-1.128,0-2.273-0.116-3.421-0.36c-8.896-1.88-14.585-10.616-12.705-19.513
		l8.193-38.773c1.88-8.896,10.614-14.585,19.513-12.705c8.896,1.88,14.585,10.616,12.705,19.513l-8.193,38.773
		C136.92,249.958,130.081,255.273,122.465,255.273z"/>
</g>
<g>
	<path style="fill:#00B7C0;" d="M477.548,304.208c-1.136,0-2.276-0.117-3.404-0.356l-43.827-9.262
		c-8.896-1.881-14.584-10.616-12.705-19.513c1.881-8.896,10.616-14.587,19.513-12.705l27.718,5.858l6.792-32.143
		c1.881-8.895,10.616-14.584,19.513-12.705c8.896,1.881,14.584,10.616,12.705,19.513l-10.196,48.251
		c-0.902,4.272-3.467,8.011-7.125,10.393C483.839,303.294,480.713,304.208,477.548,304.208z"/>
	<path style="fill:#00B7C0;" d="M389.569,311.718c-1.128,0-2.273-0.116-3.421-0.36c-8.896-1.881-14.584-10.616-12.705-19.513
		l8.194-38.773c1.881-8.895,10.616-14.585,19.513-12.705c8.896,1.881,14.584,10.616,12.705,19.513l-8.194,38.773
		C404.024,306.403,397.185,311.718,389.569,311.718z"/>
</g>
<path style="fill:#E61F00;" d="M495.549,334.114c-1.128,0-2.273-0.116-3.421-0.36L13.064,232.518
	c-8.896-1.881-14.584-10.616-12.705-19.513c1.881-8.895,10.617-14.584,19.513-12.705l479.063,101.238
	c8.896,1.881,14.584,10.616,12.705,19.513C510.004,328.8,503.164,334.114,495.549,334.114z"/>
<path style="fill:#F7DC4D;" d="M297.313,283.708c0-22.92-18.58-41.5-41.5-41.5s-41.5,18.58-41.5,41.5v80.21h83.001V283.708z"/>
<path style="fill:#9D2217;" d="M498.936,301.537L255.812,250.16v33.657l236.315,49.939c1.148,0.242,2.293,0.36,3.421,0.36
	c7.615,0,14.455-5.315,16.092-13.063C513.522,312.154,507.833,303.418,498.936,301.537z"/>
<path style="fill:#FF8600;" d="M255.812,242.207v121.71h41.5v-80.21C297.313,260.788,278.732,242.207,255.812,242.207z"/>
<circle style="fill:#C21800;" cx="255.815" cy="286.973" r="21.684"/>
<path style="fill:#C27526;" d="M297.313,380.382h-83.001c-9.093,0-16.465-7.372-16.465-16.465c0-9.093,7.372-16.465,16.465-16.465
	h83.001c9.093,0,16.465,7.372,16.465,16.465C313.778,373.01,306.406,380.382,297.313,380.382z"/>
<path style="fill:#9E1400;" d="M255.812,265.291L255.812,265.291v43.368l0,0c11.975,0,21.684-9.708,21.684-21.684
	C277.497,274.999,267.789,265.291,255.812,265.291z"/>
<path style="fill:#7E4F1F;" d="M297.313,347.452h-41.5v32.93h41.5c9.093,0,16.465-7.372,16.465-16.465
	C313.778,354.824,306.406,347.452,297.313,347.452z"/>
</svg>