<?xml version="1.0" ?>
<!-- Uploaded to: SVG Repo, www.svgrepo.com, Generator: SVG Repo Mixer Tools -->
<svg width="800px" height="800px" viewBox="0 0 64 64" xmlns="http://www.w3.org/2000/svg">
<g id="flat">
<path d="M32,3a11.985,11.985,0,0,0-8.926,20H40.926A11.985,11.985,0,0,0,32,3Z" style="fill:#ebebe8"/>
<path d="M44,15a11.961,11.961,0,0,0-3.566-8.532C38.973,14.412,33.626,19.674,28.4,23H40.926A11.94,11.94,0,0,0,44,15Z" style="fill:#e3e3e1"/>
<polygon points="11 25 9 25 9 28.586 3.707 23.293 2.293 24.707 5.586 28 2 28 2 30 7.586 30 16 38.414 17.414 37 11 30.586 11 25" style="fill:#a65b2d"/>
<polygon points="62 28 58.414 28 61.707 24.707 60.293 23.293 55 28.586 55 25 53 25 53 30.586 46 37.586 47.414 39 56.414 30 62 30 62 28" style="fill:#a65b2d"/>
<path d="M50.877,41.811a19,19,0,0,0-7.726-13.18l-22.312-.008A18.974,18.974,0,0,0,13,44q0,.559.032,1.11c.52,9.008,8.3,15.89,17.327,15.89h3.255A17.245,17.245,0,0,0,51,44.169,19.6,19.6,0,0,0,50.877,41.811Z" style="fill:#ebebe8"/>
<path d="M50.877,41.811a18.83,18.83,0,0,0-5.023-10.774c-4.208,17.543-18.883,22.8-28.4,24.352A17.64,17.64,0,0,0,30.359,61h3.255A17.245,17.245,0,0,0,51,44.169,19.6,19.6,0,0,0,50.877,41.811Z" style="fill:#e3e3e1"/>
<path d="M32,20a4,4,0,0,1-4-4h2a2,2,0,0,0,4,0h2A4,4,0,0,1,32,20Z" style="fill:#a6a6a4"/>
<circle cx="32" cy="36" r="2" style="fill:#a6a6a4"/>
<circle cx="32" cy="45" r="2" style="fill:#a6a6a4"/>
<circle cx="32" cy="54" r="2" style="fill:#a6a6a4"/>
<polygon points="46 47 38 47 38 29 42.854 27.979 46 47" style="fill:#dd4a43"/>
<path d="M18,44H16a15.873,15.873,0,0,1,1.344-6.4l1.832.8A13.891,13.891,0,0,0,18,44Z" style="fill:#fff"/>
<path d="M20.166,36.533l-1.692-1.066a16.132,16.132,0,0,1,1.792-2.338l1.468,1.358A14.078,14.078,0,0,0,20.166,36.533Z" style="fill:#fff"/>
<circle cx="26" cy="13" r="2" style="fill:#7a4321"/>
<circle cx="38" cy="13" r="2" style="fill:#7a4321"/>
<polygon points="43.833 34 38 34 38 36 44.167 36 43.833 34" style="fill:#7ea82d"/>
<polygon points="38 40 38 42 45.167 42 44.833 40 38 40" style="fill:#7ea82d"/>
<polygon points="43.261 30.438 42.854 27.979 38 29 38 30.438 43.261 30.438" style="fill:#d13e37"/>
<rect height="6" rx="2" ry="2" style="fill:#dd4a43" width="24" x="20" y="23"/>
<path d="M42,27H22a2,2,0,0,1-2-2v2a2,2,0,0,0,2,2H42a2,2,0,0,0,2-2V25A2,2,0,0,1,42,27Z" style="fill:#d13e37"/>
<rect height="6" style="fill:#7ea82d" width="2" x="25" y="23"/>
<rect height="6" style="fill:#7ea82d" width="2" x="31" y="23"/>
<rect height="6" style="fill:#7ea82d" width="2" x="37" y="23"/>
<rect height="2" style="fill:#729c22" width="2" x="25" y="27"/>
<rect height="2" style="fill:#729c22" width="2" x="31" y="27"/>
<rect height="2" style="fill:#729c22" width="2" x="37" y="27"/>
</g>
</svg>